<svg xmlns="http://www.w3.org/2000/svg" width="860" height="470" viewBox="0 0 860 470">
<rect width="100%" height="100%" fill="#fbfaf7" />
<text x="72" y="28" font-size="19" font-family="Arial, sans-serif" font-weight="700" fill="#222">Mortgage rates used as national shocks</text>
<text x="18" y="80" font-size="12" font-family="Arial, sans-serif" fill="#555" transform="rotate(-90 18,80)">Percent</text>
<line x1="72" y1="54.0" x2="830" y2="54.0" stroke="#e2e2df" /><text x="62" y="58.0" text-anchor="end" font-size="11" fill="#555">6.5</text><line x1="72" y1="124.8" x2="830" y2="124.8" stroke="#e2e2df" /><text x="62" y="128.8" text-anchor="end" font-size="11" fill="#555">5.4</text><line x1="72" y1="195.6" x2="830" y2="195.6" stroke="#e2e2df" /><text x="62" y="199.6" text-anchor="end" font-size="11" fill="#555">4.2</text><line x1="72" y1="266.4" x2="830" y2="266.4" stroke="#e2e2df" /><text x="62" y="270.4" text-anchor="end" font-size="11" fill="#555">3.1</text><line x1="72" y1="337.2" x2="830" y2="337.2" stroke="#e2e2df" /><text x="62" y="341.2" text-anchor="end" font-size="11" fill="#555">2.0</text><line x1="72" y1="408.0" x2="830" y2="408.0" stroke="#e2e2df" /><text x="62" y="412.0" text-anchor="end" font-size="11" fill="#555">0.9</text>
<line x1="72" y1="408" x2="830" y2="408" stroke="#777" />
<line x1="72" y1="54" x2="72" y2="408" stroke="#777" />
<line x1="72.0" y1="408" x2="72.0" y2="413" stroke="#777" /><text x="72.0" y="428" text-anchor="middle" font-size="11" fill="#555">2015Q1</text><line x1="158.1" y1="408" x2="158.1" y2="413" stroke="#777" /><text x="158.1" y="428" text-anchor="middle" font-size="11" fill="#555">2016Q2</text><line x1="244.3" y1="408" x2="244.3" y2="413" stroke="#777" /><text x="244.3" y="428" text-anchor="middle" font-size="11" fill="#555">2017Q3</text><line x1="330.4" y1="408" x2="330.4" y2="413" stroke="#777" /><text x="330.4" y="428" text-anchor="middle" font-size="11" fill="#555">2018Q4</text><line x1="416.5" y1="408" x2="416.5" y2="413" stroke="#777" /><text x="416.5" y="428" text-anchor="middle" font-size="11" fill="#555">2020Q1</text><line x1="502.7" y1="408" x2="502.7" y2="413" stroke="#777" /><text x="502.7" y="428" text-anchor="middle" font-size="11" fill="#555">2021Q2</text><line x1="588.8" y1="408" x2="588.8" y2="413" stroke="#777" /><text x="588.8" y="428" text-anchor="middle" font-size="11" fill="#555">2022Q3</text><line x1="675.0" y1="408" x2="675.0" y2="413" stroke="#777" /><text x="675.0" y="428" text-anchor="middle" font-size="11" fill="#555">2023Q4</text><line x1="761.1" y1="408" x2="761.1" y2="413" stroke="#777" /><text x="761.1" y="428" text-anchor="middle" font-size="11" fill="#555">2025Q1</text>
<path d="M72.0,288.4 L89.2,298.5 L106.5,300.1 L123.7,302.0 L140.9,306.0 L158.1,311.4 L175.4,318.1 L192.6,326.7 L209.8,331.3 L227.0,333.2 L244.3,337.6 L261.5,337.8 L278.7,333.6 L296.0,329.8 L313.2,329.6 L330.4,327.7 L347.6,330.0 L364.9,332.1 L382.1,334.4 L399.3,342.0 L416.5,346.6 L433.8,351.4 L451.0,352.8 L468.2,346.1 L485.5,342.0 L502.7,341.5 L519.9,347.8 L537.1,363.7 L554.4,358.9 L571.6,337.6 L588.8,299.9 L606.0,249.9 L623.3,199.3 L640.5,175.9 L657.7,158.3 L675.0,129.5 L692.2,151.4 L709.4,161.2 L726.6,160.0 L743.9,177.3 L761.1,178.2 L778.3,183.2 L795.5,195.1 L812.8,199.5 L830.0,204.4" fill="none" stroke="#1b4d89" stroke-width="2.4" /><path d="M72.0,336.7 L89.2,342.6 L106.5,341.5 L123.7,342.4 L140.9,340.5 L158.1,346.4 L175.4,356.8 L192.6,369.4 L209.8,372.7 L227.0,371.0 L244.3,372.7 L261.5,362.5 L278.7,366.0 L296.0,352.6 L313.2,352.4 L330.4,351.0 L347.6,354.3 L364.9,357.9 L382.1,362.0 L399.3,371.5 L416.5,373.3 L433.8,373.3 L451.0,361.0 L468.2,341.8 L485.5,358.5 L502.7,370.4 L519.9,383.6 L537.1,369.6 L554.4,345.1 L571.6,297.2 L588.8,226.1 L606.0,97.4 L623.3,154.6 L640.5,151.6 L657.7,78.4 L675.0,128.6 L692.2,159.6 L709.4,140.7 L726.6,160.8 L743.9,178.4 L761.1,172.3 L778.3,192.0 L795.5,199.9 L812.8,205.6 L830.0,203.3" fill="none" stroke="#b33c2e" stroke-width="2.4" /><path d="M72.0,270.6 L89.2,281.5 L106.5,281.7 L123.7,287.8 L140.9,291.8 L158.1,296.4 L175.4,310.0 L192.6,319.6 L209.8,324.0 L227.0,333.6 L244.3,339.5 L261.5,332.8 L278.7,336.1 L296.0,333.8 L313.2,334.2 L330.4,334.0 L347.6,333.2 L364.9,336.7 L382.1,344.1 L399.3,355.8 L416.5,356.6 L433.8,355.6 L451.0,348.2 L468.2,333.8 L485.5,347.2 L502.7,357.0 L519.9,375.2 L537.1,369.2 L554.4,345.7 L571.6,296.8 L588.8,231.1 L606.0,123.4 L623.3,183.6 L640.5,181.3 L657.7,116.7 L675.0,156.2 L692.2,181.7 L709.4,172.5 L726.6,191.4 L743.9,195.3 L761.1,188.0 L778.3,194.9 L795.5,201.6 L812.8,205.8 L830.0,202.2" fill="none" stroke="#257a4f" stroke-width="2.4" />
<line x1="72" y1="450" x2="94" y2="450" stroke="#1b4d89" stroke-width="2.4" /><text x="100" y="454" font-size="12" fill="#333">Effective new business</text><line x1="237" y1="450" x2="259" y2="450" stroke="#b33c2e" stroke-width="2.4" /><text x="265" y="454" font-size="12" fill="#333">Quoted 2y 75 LTV</text><line x1="402" y1="450" x2="424" y2="450" stroke="#257a4f" stroke-width="2.4" /><text x="430" y="454" font-size="12" fill="#333">Quoted 5y 75 LTV</text>
</svg>
