<svg xmlns="http://www.w3.org/2000/svg" width="860" height="470" viewBox="0 0 860 470">
<rect width="100%" height="100%" fill="#fbfaf7" />
<text x="72" y="28" font-size="19" font-family="Arial, sans-serif" font-weight="700" fill="#222">Real completed-sale price index by supply-tightness quartile</text>
<text x="18" y="80" font-size="12" font-family="Arial, sans-serif" fill="#555" transform="rotate(-90 18,80)">Index, 2016Q1 = 100</text>
<line x1="72" y1="54.0" x2="830" y2="54.0" stroke="#e2e2df" /><text x="62" y="58.0" text-anchor="end" font-size="11" fill="#555">129.7</text><line x1="72" y1="124.8" x2="830" y2="124.8" stroke="#e2e2df" /><text x="62" y="128.8" text-anchor="end" font-size="11" fill="#555">120.7</text><line x1="72" y1="195.6" x2="830" y2="195.6" stroke="#e2e2df" /><text x="62" y="199.6" text-anchor="end" font-size="11" fill="#555">111.8</text><line x1="72" y1="266.4" x2="830" y2="266.4" stroke="#e2e2df" /><text x="62" y="270.4" text-anchor="end" font-size="11" fill="#555">102.8</text><line x1="72" y1="337.2" x2="830" y2="337.2" stroke="#e2e2df" /><text x="62" y="341.2" text-anchor="end" font-size="11" fill="#555">93.8</text><line x1="72" y1="408.0" x2="830" y2="408.0" stroke="#e2e2df" /><text x="62" y="412.0" text-anchor="end" font-size="11" fill="#555">84.9</text>
<line x1="72" y1="408" x2="830" y2="408" stroke="#777" />
<line x1="72" y1="54" x2="72" y2="408" stroke="#777" />
<line x1="72.0" y1="408" x2="72.0" y2="413" stroke="#777" /><text x="72.0" y="428" text-anchor="middle" font-size="11" fill="#555">2015Q1</text><line x1="158.1" y1="408" x2="158.1" y2="413" stroke="#777" /><text x="158.1" y="428" text-anchor="middle" font-size="11" fill="#555">2016Q2</text><line x1="244.3" y1="408" x2="244.3" y2="413" stroke="#777" /><text x="244.3" y="428" text-anchor="middle" font-size="11" fill="#555">2017Q3</text><line x1="330.4" y1="408" x2="330.4" y2="413" stroke="#777" /><text x="330.4" y="428" text-anchor="middle" font-size="11" fill="#555">2018Q4</text><line x1="416.5" y1="408" x2="416.5" y2="413" stroke="#777" /><text x="416.5" y="428" text-anchor="middle" font-size="11" fill="#555">2020Q1</text><line x1="502.7" y1="408" x2="502.7" y2="413" stroke="#777" /><text x="502.7" y="428" text-anchor="middle" font-size="11" fill="#555">2021Q2</text><line x1="588.8" y1="408" x2="588.8" y2="413" stroke="#777" /><text x="588.8" y="428" text-anchor="middle" font-size="11" fill="#555">2022Q3</text><line x1="675.0" y1="408" x2="675.0" y2="413" stroke="#777" /><text x="675.0" y="428" text-anchor="middle" font-size="11" fill="#555">2023Q4</text><line x1="761.1" y1="408" x2="761.1" y2="413" stroke="#777" /><text x="761.1" y="428" text-anchor="middle" font-size="11" fill="#555">2025Q1</text>
<path d="M72.0,351.0 L89.2,332.3 L106.5,295.6 L123.7,302.9 L140.9,288.5 L158.1,285.2 L175.4,278.2 L192.6,282.2 L209.8,276.1 L227.0,263.7 L244.3,260.0 L261.5,280.4 L278.7,267.4 L296.0,265.2 L313.2,258.1 L330.4,275.7 L347.6,285.2 L364.9,286.3 L382.1,255.3 L399.3,269.8 L416.5,255.5 L433.8,275.0 L451.0,213.4 L468.2,198.2 L485.5,173.4 L502.7,167.3 L519.9,280.5 L537.1,255.9 L554.4,234.7 L571.6,240.5 L588.8,215.8 L606.0,243.6 L623.3,272.0 L640.5,290.7 L657.7,266.6 L675.0,298.0 L692.2,303.7 L709.4,311.5 L726.6,297.3 L743.9,317.6 L761.1,312.2 L778.3,371.4 L795.5,345.3 L812.8,383.6 L830.0,375.0" fill="none" stroke="#1b4d89" stroke-width="2.4" /><path d="M72.0,336.3 L89.2,317.2 L106.5,270.5 L123.7,279.7 L140.9,288.5 L158.1,273.7 L175.4,256.4 L192.6,270.2 L209.8,279.6 L227.0,263.3 L244.3,235.3 L261.5,267.3 L278.7,272.0 L296.0,265.5 L313.2,229.5 L330.4,265.0 L347.6,285.0 L364.9,268.8 L382.1,235.2 L399.3,245.0 L416.5,247.0 L433.8,264.3 L451.0,192.4 L468.2,135.2 L485.5,82.1 L502.7,78.4 L519.9,217.7 L537.1,224.6 L554.4,188.7 L571.6,189.0 L588.8,154.8 L606.0,189.8 L623.3,237.5 L640.5,247.3 L657.7,220.8 L675.0,268.7 L692.2,274.5 L709.4,262.4 L726.6,230.2 L743.9,254.1 L761.1,223.2 L778.3,323.6 L795.5,254.6 L812.8,291.7 L830.0,280.4" fill="none" stroke="#b33c2e" stroke-width="2.4" />
<line x1="72" y1="450" x2="94" y2="450" stroke="#1b4d89" stroke-width="2.4" /><text x="100" y="454" font-size="12" fill="#333">Q1 loosest</text><line x1="237" y1="450" x2="259" y2="450" stroke="#b33c2e" stroke-width="2.4" /><text x="265" y="454" font-size="12" fill="#333">Q4 tightest</text>
</svg>
