<svg xmlns="http://www.w3.org/2000/svg" width="860" height="470" viewBox="0 0 860 470">
<rect width="100%" height="100%" fill="#fbfaf7" />
<text x="72" y="28" font-size="19" font-family="Arial, sans-serif" font-weight="700" fill="#222">Real completed-sale price index by vacancy-tightness quartile</text>
<text x="18" y="80" font-size="12" font-family="Arial, sans-serif" fill="#555" transform="rotate(-90 18,80)">Index, 2016Q1 = 100</text>
<line x1="72" y1="54.0" x2="830" y2="54.0" stroke="#e2e2df" /><text x="62" y="58.0" text-anchor="end" font-size="11" fill="#555">132.6</text><line x1="72" y1="124.8" x2="830" y2="124.8" stroke="#e2e2df" /><text x="62" y="128.8" text-anchor="end" font-size="11" fill="#555">122.5</text><line x1="72" y1="195.6" x2="830" y2="195.6" stroke="#e2e2df" /><text x="62" y="199.6" text-anchor="end" font-size="11" fill="#555">112.3</text><line x1="72" y1="266.4" x2="830" y2="266.4" stroke="#e2e2df" /><text x="62" y="270.4" text-anchor="end" font-size="11" fill="#555">102.1</text><line x1="72" y1="337.2" x2="830" y2="337.2" stroke="#e2e2df" /><text x="62" y="341.2" text-anchor="end" font-size="11" fill="#555">92.0</text><line x1="72" y1="408.0" x2="830" y2="408.0" stroke="#e2e2df" /><text x="62" y="412.0" text-anchor="end" font-size="11" fill="#555">81.8</text>
<line x1="72" y1="408" x2="830" y2="408" stroke="#777" />
<line x1="72" y1="54" x2="72" y2="408" stroke="#777" />
<line x1="72.0" y1="408" x2="72.0" y2="413" stroke="#777" /><text x="72.0" y="428" text-anchor="middle" font-size="11" fill="#555">2015Q1</text><line x1="158.1" y1="408" x2="158.1" y2="413" stroke="#777" /><text x="158.1" y="428" text-anchor="middle" font-size="11" fill="#555">2016Q2</text><line x1="244.3" y1="408" x2="244.3" y2="413" stroke="#777" /><text x="244.3" y="428" text-anchor="middle" font-size="11" fill="#555">2017Q3</text><line x1="330.4" y1="408" x2="330.4" y2="413" stroke="#777" /><text x="330.4" y="428" text-anchor="middle" font-size="11" fill="#555">2018Q4</text><line x1="416.5" y1="408" x2="416.5" y2="413" stroke="#777" /><text x="416.5" y="428" text-anchor="middle" font-size="11" fill="#555">2020Q1</text><line x1="502.7" y1="408" x2="502.7" y2="413" stroke="#777" /><text x="502.7" y="428" text-anchor="middle" font-size="11" fill="#555">2021Q2</text><line x1="588.8" y1="408" x2="588.8" y2="413" stroke="#777" /><text x="588.8" y="428" text-anchor="middle" font-size="11" fill="#555">2022Q3</text><line x1="675.0" y1="408" x2="675.0" y2="413" stroke="#777" /><text x="675.0" y="428" text-anchor="middle" font-size="11" fill="#555">2023Q4</text><line x1="761.1" y1="408" x2="761.1" y2="413" stroke="#777" /><text x="761.1" y="428" text-anchor="middle" font-size="11" fill="#555">2025Q1</text>
<path d="M72.0,297.8 L89.2,273.3 L106.5,256.2 L123.7,255.9 L140.9,281.2 L158.1,242.8 L175.4,232.6 L192.6,234.5 L209.8,259.8 L227.0,237.0 L244.3,225.0 L261.5,230.4 L278.7,251.5 L296.0,235.0 L313.2,218.4 L330.4,221.4 L347.6,246.1 L364.9,222.4 L382.1,210.9 L399.3,209.8 L416.5,220.4 L433.8,234.2 L451.0,172.3 L468.2,118.2 L485.5,83.5 L502.7,78.4 L519.9,152.1 L537.1,189.8 L554.4,167.6 L571.6,165.2 L588.8,138.3 L606.0,148.8 L623.3,208.7 L640.5,210.2 L657.7,194.8 L675.0,210.0 L692.2,229.5 L709.4,210.6 L726.6,194.0 L743.9,196.5 L761.1,173.4 L778.3,269.2 L795.5,230.6 L812.8,228.9 L830.0,244.3" fill="none" stroke="#1b4d89" stroke-width="2.4" /><path d="M72.0,362.3 L89.2,345.8 L106.5,313.0 L123.7,311.5 L140.9,281.2 L158.1,281.0 L175.4,278.1 L192.6,276.9 L209.8,271.4 L227.0,255.1 L244.3,258.6 L261.5,276.5 L278.7,266.1 L296.0,277.0 L313.2,268.8 L330.4,287.6 L347.6,292.8 L364.9,290.2 L382.1,271.9 L399.3,279.4 L416.5,269.4 L433.8,282.2 L451.0,226.2 L468.2,225.2 L485.5,208.6 L502.7,215.1 L519.9,282.7 L537.1,269.4 L554.4,255.1 L571.6,257.6 L588.8,238.8 L606.0,273.1 L623.3,294.7 L640.5,305.6 L657.7,290.3 L675.0,322.8 L692.2,328.8 L709.4,329.3 L726.6,307.5 L743.9,335.6 L761.1,332.4 L778.3,356.9 L795.5,336.2 L812.8,383.6 L830.0,366.2" fill="none" stroke="#b33c2e" stroke-width="2.4" />
<line x1="72" y1="450" x2="94" y2="450" stroke="#1b4d89" stroke-width="2.4" /><text x="100" y="454" font-size="12" fill="#333">Q1 loosest</text><line x1="237" y1="450" x2="259" y2="450" stroke="#b33c2e" stroke-width="2.4" /><text x="265" y="454" font-size="12" fill="#333">Q4 tightest</text>
</svg>
