<svg xmlns="http://www.w3.org/2000/svg" width="860" height="470" viewBox="0 0 860 470">
<rect width="100%" height="100%" fill="#fbfaf7" />
<text x="72" y="28" font-size="19" font-family="Arial, sans-serif" font-weight="700" fill="#222">Transaction count index by supply-tightness quartile</text>
<text x="18" y="80" font-size="12" font-family="Arial, sans-serif" fill="#555" transform="rotate(-90 18,80)">Index, 2016Q1 = 100</text>
<line x1="72" y1="54.0" x2="830" y2="54.0" stroke="#e2e2df" /><text x="62" y="58.0" text-anchor="end" font-size="11" fill="#555">143.8</text><line x1="72" y1="124.8" x2="830" y2="124.8" stroke="#e2e2df" /><text x="62" y="128.8" text-anchor="end" font-size="11" fill="#555">116.8</text><line x1="72" y1="195.6" x2="830" y2="195.6" stroke="#e2e2df" /><text x="62" y="199.6" text-anchor="end" font-size="11" fill="#555">89.8</text><line x1="72" y1="266.4" x2="830" y2="266.4" stroke="#e2e2df" /><text x="62" y="270.4" text-anchor="end" font-size="11" fill="#555">62.9</text><line x1="72" y1="337.2" x2="830" y2="337.2" stroke="#e2e2df" /><text x="62" y="341.2" text-anchor="end" font-size="11" fill="#555">35.9</text><line x1="72" y1="408.0" x2="830" y2="408.0" stroke="#e2e2df" /><text x="62" y="412.0" text-anchor="end" font-size="11" fill="#555">8.9</text>
<line x1="72" y1="408" x2="830" y2="408" stroke="#777" />
<line x1="72" y1="54" x2="72" y2="408" stroke="#777" />
<line x1="72.0" y1="408" x2="72.0" y2="413" stroke="#777" /><text x="72.0" y="428" text-anchor="middle" font-size="11" fill="#555">2015Q1</text><line x1="158.1" y1="408" x2="158.1" y2="413" stroke="#777" /><text x="158.1" y="428" text-anchor="middle" font-size="11" fill="#555">2016Q2</text><line x1="244.3" y1="408" x2="244.3" y2="413" stroke="#777" /><text x="244.3" y="428" text-anchor="middle" font-size="11" fill="#555">2017Q3</text><line x1="330.4" y1="408" x2="330.4" y2="413" stroke="#777" /><text x="330.4" y="428" text-anchor="middle" font-size="11" fill="#555">2018Q4</text><line x1="416.5" y1="408" x2="416.5" y2="413" stroke="#777" /><text x="416.5" y="428" text-anchor="middle" font-size="11" fill="#555">2020Q1</text><line x1="502.7" y1="408" x2="502.7" y2="413" stroke="#777" /><text x="502.7" y="428" text-anchor="middle" font-size="11" fill="#555">2021Q2</text><line x1="588.8" y1="408" x2="588.8" y2="413" stroke="#777" /><text x="588.8" y="428" text-anchor="middle" font-size="11" fill="#555">2022Q3</text><line x1="675.0" y1="408" x2="675.0" y2="413" stroke="#777" /><text x="675.0" y="428" text-anchor="middle" font-size="11" fill="#555">2023Q4</text><line x1="761.1" y1="408" x2="761.1" y2="413" stroke="#777" /><text x="761.1" y="428" text-anchor="middle" font-size="11" fill="#555">2025Q1</text>
<path d="M72.0,244.7 L89.2,201.0 L106.5,163.4 L123.7,163.3 L140.9,168.9 L158.1,231.8 L175.4,184.6 L192.6,189.9 L209.8,231.8 L227.0,200.2 L244.3,184.8 L261.5,189.6 L278.7,241.7 L296.0,214.5 L313.2,194.3 L330.4,192.0 L347.6,251.6 L364.9,228.3 L382.1,200.0 L399.3,195.6 L416.5,250.1 L433.8,322.2 L451.0,233.3 L468.2,144.0 L485.5,114.9 L502.7,78.4 L519.9,180.1 L537.1,224.7 L554.4,226.0 L571.6,207.6 L588.8,177.4 L606.0,183.8 L623.3,261.8 L640.5,269.5 L657.7,234.6 L675.0,246.1 L692.2,275.7 L709.4,252.6 L726.6,219.9 L743.9,207.7 L761.1,179.8 L778.3,303.9 L795.5,263.5 L812.8,288.0 L830.0,383.6" fill="none" stroke="#1b4d89" stroke-width="2.4" /><path d="M72.0,244.6 L89.2,206.8 L106.5,162.7 L123.7,161.6 L140.9,168.9 L158.1,230.2 L175.4,177.8 L192.6,191.7 L209.8,221.6 L227.0,200.2 L244.3,169.6 L261.5,183.2 L278.7,225.0 L296.0,209.0 L313.2,180.7 L330.4,181.6 L347.6,234.2 L364.9,219.8 L382.1,190.4 L399.3,189.9 L416.5,243.2 L433.8,315.3 L451.0,229.3 L468.2,150.4 L485.5,132.8 L502.7,109.1 L519.9,153.5 L537.1,211.7 L554.4,209.2 L571.6,204.9 L588.8,175.7 L606.0,187.5 L623.3,251.7 L640.5,262.7 L657.7,229.7 L675.0,238.3 L692.2,267.0 L709.4,250.1 L726.6,211.3 L743.9,203.0 L761.1,185.3 L778.3,290.6 L795.5,250.4 L812.8,279.8 L830.0,379.3" fill="none" stroke="#b33c2e" stroke-width="2.4" />
<line x1="72" y1="450" x2="94" y2="450" stroke="#1b4d89" stroke-width="2.4" /><text x="100" y="454" font-size="12" fill="#333">Q1 loosest</text><line x1="237" y1="450" x2="259" y2="450" stroke="#b33c2e" stroke-width="2.4" /><text x="265" y="454" font-size="12" fill="#333">Q4 tightest</text>
</svg>
